<svg width="287.4" height="79.201" viewBox="0 0 287.4 79.201" xmlns="http://www.w3.org/2000/svg"><g id="svgGroup" stroke-linecap="round" fill-rule="evenodd" font-size="9pt" stroke="#000" stroke-width="0.25mm" fill="black" style="stroke:#000;stroke-width:0.25mm;fill:black"><path d="M 283 61.4 L 287.4 61.4 L 287.4 77.8 L 255.8 77.8 L 255.8 61.4 L 260 61.4 L 260 45 Q 260 43.034 259.503 41.689 A 4.692 4.692 0 0 0 258.6 40.15 A 4.417 4.417 0 0 0 256.582 38.897 Q 255.864 38.674 254.996 38.619 A 9.323 9.323 0 0 0 254.4 38.6 A 8.086 8.086 0 0 0 251.989 38.929 Q 248.4 40.05 248.4 45 L 248.4 61.4 L 252.6 61.4 L 252.6 77.8 L 221 77.8 L 221 61.4 L 225.4 61.4 L 225.4 38.6 L 221 38.6 L 221 22.2 L 248.4 22.2 L 248.4 30 A 25.708 25.708 0 0 1 254.574 24.216 A 21.191 21.191 0 0 1 266.4 20.8 A 21.039 21.039 0 0 1 271.291 21.334 A 13.307 13.307 0 0 1 278.85 26 Q 283 31.2 283 40.3 L 283 61.4 Z M 0 72.6 L 0 55 L 20 55 L 20 56 A 8.102 8.102 0 0 0 20.249 58.104 Q 21.138 61.4 25.2 61.4 A 7.989 7.989 0 0 0 26.751 61.259 Q 28.321 60.948 29.25 59.95 A 4.399 4.399 0 0 0 30.147 58.437 Q 30.388 57.777 30.501 56.961 A 11.436 11.436 0 0 0 30.6 55.4 L 30.6 16.4 L 21.6 16.4 L 21.6 0 L 63.6 0 L 63.6 16.4 L 58.6 16.4 L 58.6 50 Q 58.6 60.89 53.88 67.692 A 21.815 21.815 0 0 1 50 71.95 A 28.725 28.725 0 0 1 39.444 77.471 Q 33.571 79.2 26.1 79.2 Q 18.4 79.2 11.5 77.45 Q 5.338 75.887 1.01 73.248 A 26.476 26.476 0 0 1 0 72.6 Z M 123.6 46.4 L 123.6 53.6 L 91.2 53.6 L 91.2 54.2 A 9.836 9.836 0 0 0 91.404 56.274 Q 91.68 57.552 92.328 58.5 A 5.25 5.25 0 0 0 93.4 59.65 Q 95.6 61.4 100.7 61.4 A 74.281 74.281 0 0 0 109.513 60.894 A 65.028 65.028 0 0 0 112.3 60.5 A 73.839 73.839 0 0 0 116.845 59.617 Q 119.078 59.105 121.02 58.49 A 42.312 42.312 0 0 0 121.9 58.2 L 121.9 74.2 A 23.178 23.178 0 0 1 119.395 75.353 Q 116.291 76.584 111.65 77.65 A 61.105 61.105 0 0 1 102.295 79.017 A 74.781 74.781 0 0 1 97 79.2 Q 82.8 79.2 74.8 71.75 A 23.877 23.877 0 0 1 68.123 60.499 Q 67.048 56.694 66.847 52.141 A 48.408 48.408 0 0 1 66.8 50 A 40.755 40.755 0 0 1 67.641 41.447 Q 68.778 36.154 71.45 32.177 A 22.48 22.48 0 0 1 74.8 28.25 Q 82.167 21.389 94.792 20.847 A 51.412 51.412 0 0 1 97 20.8 A 42.777 42.777 0 0 1 104.31 21.381 Q 112.858 22.867 117.35 28.15 Q 123.6 35.5 123.6 46.4 Z M 218 46.4 L 218 53.6 L 185.6 53.6 L 185.6 54.2 A 9.836 9.836 0 0 0 185.804 56.274 Q 186.08 57.552 186.728 58.5 A 5.25 5.25 0 0 0 187.8 59.65 Q 190 61.4 195.1 61.4 A 74.281 74.281 0 0 0 203.913 60.894 A 65.028 65.028 0 0 0 206.7 60.5 A 73.839 73.839 0 0 0 211.245 59.617 Q 213.478 59.105 215.42 58.49 A 42.312 42.312 0 0 0 216.3 58.2 L 216.3 74.2 A 23.178 23.178 0 0 1 213.795 75.353 Q 210.691 76.584 206.05 77.65 A 61.105 61.105 0 0 1 196.695 79.017 A 74.781 74.781 0 0 1 191.4 79.2 Q 177.2 79.2 169.2 71.75 A 23.877 23.877 0 0 1 162.523 60.499 Q 161.448 56.694 161.247 52.141 A 48.408 48.408 0 0 1 161.2 50 A 40.755 40.755 0 0 1 162.041 41.447 Q 163.178 36.154 165.85 32.177 A 22.48 22.48 0 0 1 169.2 28.25 Q 176.567 21.389 189.192 20.847 A 51.412 51.412 0 0 1 191.4 20.8 A 42.777 42.777 0 0 1 198.71 21.381 Q 207.258 22.867 211.75 28.15 Q 218 35.5 218 46.4 Z M 158.4 77.9 L 126.6 77.9 L 126.6 61.4 L 131 61.4 L 131 16.4 L 126.6 16.4 L 126.6 0 L 154 0 L 154 61.4 L 158.4 61.4 L 158.4 77.9 Z M 91.2 42.6 L 102.8 42.6 L 102.8 41.4 Q 102.8 38 101.35 36.5 Q 99.9 35 97 35 Q 94.974 35 93.655 35.757 A 4.295 4.295 0 0 0 92.65 36.55 A 4.704 4.704 0 0 0 91.685 38.169 Q 91.2 39.492 91.2 41.4 L 91.2 42.6 Z M 185.6 42.6 L 197.2 42.6 L 197.2 41.4 Q 197.2 38 195.75 36.5 Q 194.3 35 191.4 35 Q 189.374 35 188.055 35.757 A 4.295 4.295 0 0 0 187.05 36.55 A 4.704 4.704 0 0 0 186.085 38.169 Q 185.6 39.492 185.6 41.4 L 185.6 42.6 Z" vector-effect="non-scaling-stroke"/></g></svg>